<svg width="474" height="240" viewBox="0 0 474 240" fill="none" xmlns="http://www.w3.org/2000/svg">
<g clip-path="url(#clip0)">
<path d="M16.0859 61.8V81.4H113.486V61.8H16.0859ZM16.0859 194H35.6859V137.8H93.4859V118H16.0859V194ZM131.906 113.6V194H151.506V113.6H131.906ZM269.069 127C276.069 120 280.269 110.6 280.269 100.2C280.269 79.6 263.269 62.6 242.469 62.6H183.069V82.4H242.469C252.469 82.4 260.469 90.4 260.469 100.2C260.469 110.2 252.469 118.2 242.469 118.2H183.069V194H247.069C267.869 194 284.669 177.2 284.669 156.4C284.669 145.2 278.669 134.2 269.069 127ZM265.069 156.4C265.069 166.2 257.069 174.4 247.069 174.4H202.869V138H243.469C253.269 138 265.069 146.4 265.069 156.4ZM308.273 113.6V194H327.873V113.6H308.273ZM431.636 145.6C447.636 138.8 458.636 123.2 458.636 105C458.636 80.8 438.836 61.2 414.636 61.2H359.836V80.8H414.636C428.036 80.8 438.836 91.8 438.836 105C438.836 118.4 428.036 129.2 414.636 129.2H359.836V194H379.436V149H409.636L442.436 194H466.836L431.636 145.6Z" fill="white"/>
</g>
<defs>
<clipPath id="clip0">
<rect width="474" height="240" fill="white"/>
</clipPath>
</defs>
</svg>
