<svg width="837" height="335" viewBox="0 0 837 335" fill="none" xmlns="http://www.w3.org/2000/svg">
<g clip-path="url(#clip0)">
<path d="M204.914 131.113L206.792 150.622L303.744 141.287L301.865 121.777L204.914 131.113ZM217.584 262.704L237.094 260.825L231.708 204.884L289.241 199.344L287.344 179.635L210.3 187.054L217.584 262.704ZM325.165 171.573L332.871 251.603L352.381 249.725L344.675 169.695L325.165 171.573ZM462.981 171.765C469.278 164.126 472.557 154.367 471.561 144.015C469.586 123.51 451.035 108.218 430.331 110.211L371.204 115.904L373.102 135.613L432.229 129.92C442.182 128.962 450.912 136.158 451.852 145.913C452.81 155.867 445.614 164.597 435.66 165.555L376.533 171.248L383.798 246.699L447.504 240.565C468.208 238.572 483.32 220.239 481.327 199.535C480.253 188.386 473.227 178.012 462.981 171.765ZM461.817 201.413C462.756 211.168 455.579 220.097 445.625 221.056L401.629 225.292L398.14 189.06L438.553 185.168C448.308 184.229 460.859 191.459 461.817 201.413ZM500.721 154.669L508.427 234.699L527.936 232.821L520.23 152.791L500.721 154.669ZM626.582 174.698C641.857 166.396 651.311 149.813 649.567 131.697C647.247 107.609 625.66 89.9966 601.571 92.3161L547.023 97.5685L548.902 117.078L603.45 111.826C616.788 110.542 628.593 120.456 629.858 133.595C631.142 146.933 621.427 158.719 608.089 160.003L553.541 165.255L559.752 229.757L579.261 227.878L574.948 183.086L605.009 180.191L641.971 221.84L666.259 219.502L626.582 174.698Z" fill="white"/>
<line x1="11.5" y1="335" x2="11.5" y2="72" stroke="white" stroke-width="23"/>
<line x1="825.5" y1="263" x2="825.5" y2="3" stroke="white" stroke-width="23"/>
<line x1="21.9868" y1="83.5447" x2="835.987" y2="11.5447" stroke="white" stroke-width="23"/>
<line x1="21.9868" y1="323.545" x2="835.987" y2="251.545" stroke="white" stroke-width="23"/>
</g>
<defs>
<clipPath id="clip0">
<rect width="837" height="335" fill="white"/>
</clipPath>
</defs>
</svg>
