<svg width="37" height="51" viewBox="0 0 37 51" fill="none" xmlns="http://www.w3.org/2000/svg">
<path d="M11 31.2454L17.076 33.124L16.441 31.6534C16.169 31.0201 15.656 30.5045 14.998 30.1994L12.5 29.4231H11.5L11 31.2454Z" fill="white"/>
<path d="M17.493 31.8926L18 33.0674L18.507 31.8926C18.961 30.8364 19.817 29.9759 20.913 29.4678L23 28.4997V26.8909C21.527 27.6837 19.822 28.1455 18 28.1455C16.178 28.1455 14.473 27.6837 13 26.8909V28.4997L15.087 29.4678C16.184 29.9759 17.039 30.8373 17.493 31.8926Z" fill="white"/>
<path d="M24.489 29.0728H23.507L21.078 30.1994C20.42 30.5045 19.907 31.021 19.635 31.6534L19 33.124L25.076 31.2454L24.489 29.0728Z" fill="white"/>
<path d="M27 10.7885V11.2789V13.4529C27.823 13.4529 29.5 14.8561 29.5 15.8369L29.47 13.4529V12.5257V10.6711C29.47 9.19211 29.151 7.78266 28.584 6.49097C27.582 7.70384 26.364 8.7294 25 9.53984C26.405 10.2399 26.823 10.7885 27 10.7885Z" fill="white"/>
<path d="M27 13.9091V19.1305C28.161 18.7466 29 17.7266 29 16.5193C29 15.312 28.161 14.2929 27 13.9091Z" fill="white"/>
<path d="M26.099 29.8026C28.467 28.7223 30 26.4931 30 23.9849C30 22.6848 29.9263 19.477 29.1593 18.4135C29.1593 18.9038 28.1593 19.8846 27.1593 19.8846C27.1593 21.5769 25.781 25.0096 24 25.959V28.6212H25.781L26.099 29.8026Z" fill="white"/>
<path d="M9.901 30.0238C7.533 28.9435 6 26.7143 6 24.2061C6 22.906 6.07367 19.6982 6.84067 18.6346C6.84067 19.125 7.84067 20.1058 8.84067 20.1058C8.84067 21.7981 10.219 25.2308 12 26.1802V28.8424H10.219L9.901 30.0238Z" fill="white"/>
<path d="M10 11.5511V19.4728C10 23.563 13.589 26.891 18 26.891C22.411 26.891 26 23.563 26 19.4728V11.5511C25.569 11.234 24.651 10.6489 23.286 10.1547C21.63 10.7852 19.838 11.1274 18 11.1274C16.165 11.1274 14.376 10.7861 12.721 10.1574C11.356 10.6526 10.431 11.2349 10 11.5511ZM23 13.9092C23.552 13.9092 23.8353 14.3246 23.8353 14.8365C23.8353 15.3483 23.552 15.6923 23 15.6923C22.448 15.6923 22.2013 15.3483 22.2013 14.8365C22.2013 14.3246 22.448 13.9092 23 13.9092ZM18 23.0481C19 23.0481 19.7516 22.9594 20.3525 22.3087C20.827 21.7948 21.1066 21.1014 21 20.4001H22C22 22.4457 20.206 24.1092 18 24.1092C15.794 24.1092 14 22.4457 14 20.4001H15C14.9232 21.0846 15.2175 21.7868 15.7008 22.3087C16.2944 22.9496 17 23.0481 18 23.0481ZM13.8543 14.8365C13.8543 15.3483 13.552 15.6923 13 15.6923C12.448 15.6923 12.1022 15.3483 12.1022 14.8365C12.1022 14.3246 12.448 13.9092 13 13.9092C13.552 13.9092 13.8543 14.3246 13.8543 14.8365Z" fill="white"/>
<path d="M15 33.1231L9.959 31.5653L7 32.2515V34.9758C7 36.5021 6.61 38.0312 5.874 39.3989C5.302 40.4579 5 41.6448 5 42.8317C5 44.3533 5.48 45.8258 6.391 47.0906L7 47.9382V50.0737H10V40.8H8V39.8737H10V36.1646H15V33.1231Z" fill="white"/>
<path d="M4 42.5711C4 41.0977 4.375 39.6243 5.085 38.3085C5.684 37.1976 6 35.955 6 34.7153V32.4546L3.787 32.9674C1.558 33.4848 0 35.3338 0 37.4656V49.8122H6V48.2386L5.727 47.8584C4.597 46.2886 4 44.46 4 42.5711Z" fill="white"/>
<path d="M33.213 32.9674L31 32.4546V34.7153C31 35.955 31.316 37.1976 31.915 38.3085C32.625 39.6243 33 41.0977 33 42.5711C33 44.46 32.403 46.2886 31.273 47.8584L31 48.2386V49.8122H37V37.4656C37 35.3338 35.442 33.4848 33.213 32.9674Z" fill="white"/>
<path d="M31.126 39.3608C30.39 37.9931 30 36.464 30 34.9377V32.2134L27.041 31.5272L18 34.3211L16 33.7026V37.0909H11V39.8347H13V40.7999H11V50.0347H18H30V47.8991L30.609 47.0516C31.52 45.7868 32 44.3143 32 42.7936C32 41.6067 31.698 40.4198 31.126 39.3608Z" fill="white"/>
<path d="M9 19.1305V13.9091C7.839 14.2929 7 15.3129 7 16.5203C7 17.7276 7.839 18.7466 9 19.1305Z" fill="white"/>
<path d="M18 0C20.702 0 23.189 0.841964 25.197 2.244C26.8884 3.82083 27.426 4.1723 28 5.56364C27 6.95455 26.4668 7.62159 25.197 8.34545C20.9875 10.7451 15.6331 10.8713 11.5 8.34545C10.3332 7.63238 9.5 6.95455 8.5 5.56364C8.88732 3.91552 9.38978 3.43663 10.803 2.244C12.811 0.841964 15.298 0 18 0Z" fill="white"/>
<path d="M9 11.2154L9.293 10.9437C9.334 10.9057 10.071 10.2399 11.473 9.54169C10.108 8.73126 8.888 7.70477 7.886 6.49097C7.319 7.78359 7 9.19304 7 10.672V12.5266V13.4539L7 14.9886C7.5 14.0078 8.24743 13.4539 9.00983 13.4539L9 11.2154Z" fill="white"/>
</svg>
