<svg width="44" height="43" viewBox="0 0 44 43" fill="none" xmlns="http://www.w3.org/2000/svg">
<path d="M27.1201 8.74438C22.6878 11.4077 17.542 12.4476 12.4877 11.7009C12.8601 14.448 13.2416 17.1935 13.634 19.9375C13.7086 20.4624 13.828 20.9793 13.9901 21.482C14.4099 21.0605 14.7721 20.58 15.0669 20.054C15.444 19.4914 15.9232 19.0138 16.478 18.649C17.0328 18.2842 17.6515 18.0396 18.2973 17.9296C18.943 17.8196 19.6044 17.8463 20.2403 18.0083C20.8761 18.1702 21.4744 18.4642 22.0009 18.8728C22.5274 18.4645 23.126 18.1709 23.7616 18.0091C24.3972 17.8474 25.0569 17.8207 25.7024 17.9307C26.348 18.0407 26.9671 18.2853 27.5217 18.6499C28.0763 19.0145 28.5557 19.4918 28.9328 20.054C29.2276 20.58 29.5898 21.0605 30.0096 21.482C30.1717 20.9793 30.2911 20.4624 30.3657 19.9375C30.7604 17.1714 31.144 14.4038 31.5185 11.6346C30.6038 11.6244 29.7109 11.3492 28.935 10.8394C28.1592 10.3295 27.5303 9.60475 27.1201 8.74438V8.74438ZM26.5144 12.9232C26.6199 12.926 26.7243 12.9511 26.8205 12.9969C26.9166 13.0427 27.0029 13.1084 27.0745 13.19C27.1461 13.2716 27.2015 13.3674 27.2373 13.4719C27.2731 13.5764 27.2886 13.6874 27.2829 13.7983C27.2908 13.9121 27.2755 14.0265 27.2395 14.1342C27.2035 14.2418 27.1483 14.3406 27.0745 14.4242C27.0006 14.5078 26.9112 14.5744 26.8118 14.62C26.7124 14.6656 26.6055 14.6891 26.497 14.6891C26.3886 14.6891 26.2795 14.6656 26.1801 14.62C26.0806 14.5744 25.9912 14.5078 25.9174 14.4242C25.8435 14.3406 25.7883 14.2418 25.7524 14.1342C25.7164 14.0265 25.7011 13.9121 25.709 13.7983C25.7031 13.6841 25.7208 13.5697 25.7589 13.4626C25.797 13.3554 25.8547 13.2577 25.9304 13.1756C26.0061 13.0934 26.0968 13.0286 26.1974 12.9852C26.298 12.9418 26.4057 12.9206 26.5144 12.9232V12.9232ZM17.4918 12.9572C17.5975 12.9552 17.7021 12.9756 17.8001 13.0171C17.8982 13.0585 17.9878 13.1203 18.0628 13.1987C18.1377 13.2771 18.1965 13.3705 18.2365 13.4734C18.2765 13.5764 18.2964 13.6867 18.2951 13.7979C18.2977 13.9087 18.2793 14.019 18.2408 14.1222C18.2023 14.2253 18.145 14.3193 18.0715 14.3986C17.9979 14.478 17.9102 14.5411 17.8131 14.5841C17.7161 14.6272 17.6102 14.6494 17.5049 14.6494C17.3995 14.6494 17.2958 14.6272 17.1987 14.5841C17.1017 14.5411 17.0139 14.478 16.9404 14.3986C16.8669 14.3193 16.8096 14.2253 16.7711 14.1222C16.7326 14.019 16.7142 13.9087 16.7168 13.7979C16.7143 13.5785 16.7931 13.3669 16.9382 13.2094C17.0834 13.0519 17.2834 12.9613 17.4918 12.9572V12.9572Z" fill="white"/>
<path d="M12.3838 17.4761C11.8285 17.4611 11.2976 17.2398 10.8822 16.8516C10.4669 16.4635 10.1949 15.9333 10.1151 15.3547C10.0352 14.7762 10.152 14.1865 10.4453 13.69C10.7386 13.1935 11.1888 12.822 11.7171 12.6414C11.9361 14.2534 12.158 15.8651 12.3838 17.4761V17.4761Z" fill="white"/>
<path d="M15.8151 20.5639C15.1889 21.6697 14.3032 22.589 13.2448 23.2344C12.1864 23.8798 10.9888 24.2299 9.76578 24.2517C11.5329 25.5169 13.6576 26.1108 15.7884 25.9356C17.9192 25.7605 19.9299 24.8267 21.489 23.2881C21.6275 23.151 21.8097 23.0746 21.9998 23.0746C22.1899 23.0746 22.3742 23.151 22.5126 23.2881C24.0717 24.8268 26.0823 25.7607 28.2132 25.9359C30.3441 26.1111 32.4666 25.517 34.2338 24.2517C33.0108 24.2299 31.8132 23.8798 30.7548 23.2344C29.6964 22.589 28.8128 21.6697 28.1866 20.5639C27.8713 20.1019 27.4708 19.7115 27.0091 19.4159C26.5474 19.1203 26.0341 18.9256 25.4993 18.8433C24.9646 18.761 24.4201 18.7928 23.8973 18.9369C23.3744 19.081 22.883 19.3344 22.4552 19.682C22.3246 19.7879 22.1646 19.8453 21.9998 19.8453C21.835 19.8453 21.675 19.7879 21.5444 19.682C21.1166 19.3345 20.6272 19.0813 20.1044 18.9372C19.5816 18.7931 19.037 18.7613 18.5023 18.8436C17.9676 18.9259 17.4542 19.1206 16.9926 19.4162C16.5309 19.7118 16.1304 20.102 15.8151 20.5639V20.5639Z" fill="white"/>
<path d="M17.9888 26.4531C19.4799 25.9864 20.8509 25.1703 21.9992 24.0659C23.1474 25.1703 24.5185 25.9864 26.0095 26.4531C24.7769 27.1514 23.399 27.5171 21.9992 27.5171C20.5993 27.5171 19.2214 27.1514 17.9888 26.4531V26.4531Z" fill="white"/>
<path d="M32.2821 12.6414C32.8104 12.822 33.2606 13.1935 33.5539 13.69C33.8472 14.1866 33.964 14.7762 33.8841 15.3547C33.8042 15.9333 33.5324 16.4638 33.1169 16.8519C32.7015 17.2401 32.1687 17.4612 31.6133 17.4761C31.8393 15.8651 32.063 14.2534 32.2821 12.6414V12.6414Z" fill="white"/>
<path d="M27.8596 8.20287C28.1943 8.96396 28.732 9.60552 29.4083 10.0489C30.0847 10.4924 30.8702 10.7184 31.6668 10.699C31.7751 10.6964 31.8834 10.7185 31.9827 10.7641C32.082 10.8096 32.1693 10.8774 32.2412 10.9627C32.3131 11.0479 32.3679 11.1488 32.3991 11.2579C32.4304 11.367 32.437 11.4818 32.4217 11.5947C32.4077 11.6314 32.3947 11.6681 32.3807 11.7048C32.6678 11.7874 32.9421 11.9111 33.1971 12.0726V8.46409C33.1971 7.18958 32.7392 5.96255 31.913 5.03072C31.0868 4.0989 29.9539 3.53177 28.7458 3.44371C28.644 3.43623 28.545 3.40675 28.4545 3.35735C28.3639 3.30795 28.2851 3.2395 28.2206 3.15631C28.1562 3.07312 28.1068 2.97706 28.0791 2.87377C28.0513 2.77049 28.045 2.66227 28.0586 2.55588C28.0873 2.33196 28.0461 2.10432 27.9416 1.90688C27.8372 1.70945 27.6761 1.55285 27.4801 1.46054C25.3287 0.451599 22.9918 -0.0458871 20.6369 0.00332576C18.2821 0.0525386 15.9669 0.647206 13.8553 1.74524C12.9222 2.23045 12.1357 2.98072 11.5865 3.9111C11.0373 4.84147 10.7475 5.91481 10.7475 7.01011V12.0729C11.0027 11.9113 11.2767 11.7873 11.564 11.7048C11.564 11.6813 11.564 11.658 11.564 11.6346C11.5477 11.5138 11.5579 11.3906 11.5947 11.2749C11.6316 11.1592 11.6951 11.0539 11.7773 10.9678C11.8595 10.8817 11.9585 10.817 12.0686 10.7786C12.1787 10.7403 12.2964 10.7295 12.4112 10.7471C17.3777 11.5248 22.4473 10.5047 26.7909 7.85341C26.8806 7.79894 26.9812 7.76481 27.0842 7.75302C27.1872 7.74124 27.2911 7.75197 27.3898 7.78486C27.4886 7.81776 27.5787 7.87208 27.6565 7.94408C27.7343 8.01607 27.7975 8.10426 27.8411 8.20314L27.8596 8.20287Z" fill="white"/>
<path d="M0 42.8499V39.1068C4.75461e-05 37.9967 0.308548 36.9107 0.886167 35.9819C1.46379 35.053 2.28677 34.3216 3.25338 33.8773L8.94372 31.2594C9.26569 35.2334 9.95412 39.1653 10.9971 42.9997H0.143592C0.124848 42.9998 0.107596 42.9959 0.0902577 42.9884C0.0729198 42.9809 0.0563514 42.9699 0.0430775 42.956C0.0298037 42.9421 0.0194829 42.9256 0.0123079 42.9074C0.0051328 42.8892 0.00202775 42.8697 0.00205131 42.8499H0Z" fill="white"/>
<path d="M11.9213 42.9995C10.8274 39.04 10.1179 34.9735 9.80638 30.8631L13.6854 29.0793C13.2349 33.8126 13.8848 38.5901 15.5808 42.9995H11.9213Z" fill="white"/>
<path d="M16.7479 26.7546C16.4518 26.8067 16.1549 26.845 15.8556 26.8696C16.462 28.0259 17.3513 28.9899 18.432 29.6612C19.5128 30.3326 20.7443 30.6867 21.9993 30.6867C23.2542 30.6867 24.4878 30.3326 25.5685 29.6612C26.6493 28.9899 27.5385 28.0259 28.145 26.8696C27.8455 26.845 27.5469 26.8067 27.2506 26.7546C25.7014 27.8615 23.8718 28.4534 21.9993 28.4534C20.1267 28.4534 18.2971 27.8615 16.7479 26.7546V26.7546Z" fill="white"/>
<path d="M26.9243 35.5404C26.9132 35.5565 26.8996 35.5702 26.8833 35.5806C26.8671 35.5909 26.8488 35.5976 26.83 35.6005C26.8112 35.6034 26.7909 35.6023 26.7726 35.5973C26.7542 35.5923 26.7384 35.5835 26.7233 35.5714L23.0043 32.5477C22.7215 32.3175 22.373 32.1923 22.0156 32.1917C21.6581 32.1912 21.3102 32.3152 21.0268 32.5444L17.277 35.5738C17.262 35.586 17.2441 35.5947 17.2257 35.5997C17.2074 35.6048 17.1871 35.6058 17.1683 35.603C17.1495 35.6001 17.1333 35.5933 17.117 35.583C17.1008 35.5726 17.0851 35.559 17.0739 35.5428C15.6131 33.4463 14.7749 30.9425 14.6616 28.3455C14.7213 27.8644 14.7919 27.3851 14.8749 26.908C15.5206 28.3198 16.5314 29.5111 17.7919 30.3448C19.0524 31.1786 20.5124 31.621 22.0012 31.621C23.49 31.621 24.9479 31.1786 26.2084 30.3448C27.469 29.5111 28.4797 28.3198 29.1254 26.908C29.2071 27.3852 29.2784 27.8645 29.3367 28.3455C29.223 30.9418 28.3828 33.445 26.9223 35.5409L26.9243 35.5404Z" fill="white"/>
<path d="M16.3604 36.0956C15.528 34.9017 14.8799 33.5775 14.4383 32.1716C14.4589 35.8912 15.1737 39.5704 16.543 42.9996H19.5768V34.8955L17.8189 36.315C17.71 36.4028 17.5865 36.467 17.4537 36.5036C17.321 36.5402 17.1814 36.5483 17.0455 36.5279C16.9097 36.5075 16.7796 36.4588 16.6619 36.3846C16.5442 36.3104 16.4416 36.212 16.3604 36.0956V36.0956Z" fill="white"/>
<path d="M28.4171 42.9995C30.1131 38.5901 30.7651 33.8126 30.3146 29.0793L34.1916 30.8631C33.8799 34.9735 33.1728 39.04 32.0787 42.9995H28.4171Z" fill="white"/>
<path d="M43.9979 39.1068V42.8499C43.998 42.8697 43.9949 42.8892 43.9877 42.9074C43.9805 42.9256 43.9702 42.9423 43.9569 42.9563C43.9436 42.9702 43.9271 42.9811 43.9097 42.9886C43.8924 42.9961 43.8751 43.0001 43.8564 43H33.0029C34.0459 39.1655 34.7343 35.2334 35.0563 31.2594L40.7487 33.8773C41.7152 34.3217 42.5363 35.0533 43.1138 35.9821C43.6914 36.911 44 37.997 44 39.1071L43.9979 39.1068Z" fill="white"/>
<path d="M22.4613 33.2874L23.5362 34.1604V42.9997H20.4653V34.1782L21.571 33.2855C21.6986 33.1819 21.855 33.1257 22.0161 33.1257C22.1773 33.1257 22.3337 33.1819 22.4613 33.2855V33.2874Z" fill="white"/>
<path d="M26.1819 36.3109L24.4219 34.8826V42.9996H27.4578C28.827 39.5704 29.5418 35.8912 29.5624 32.1716C29.1216 33.5767 28.4736 34.9002 27.6424 36.0937C27.5611 36.2103 27.4589 36.3087 27.3409 36.383C27.2229 36.4572 27.0914 36.5061 26.9552 36.5263C26.8191 36.5465 26.6799 36.5376 26.547 36.5006C26.4141 36.4637 26.2907 36.3993 26.1819 36.3109V36.3109Z" fill="white"/>
</svg>
