<svg width="44" height="43" viewBox="0 0 44 43" fill="none" xmlns="http://www.w3.org/2000/svg">
<path fill-rule="evenodd" clip-rule="evenodd" d="M22.0003 43H0C0 31.1298 9.84965 21.5075 22.0003 21.5075C34.1504 21.5075 44 31.1298 44 43H22.0003ZM22.0003 0C27.4678 0 31.9001 4.33005 31.9001 9.67082C31.9001 15.0127 27.4678 19.3427 22.0003 19.3427C16.5322 19.3427 12.0999 15.0127 12.0999 9.67082C12.0999 4.33005 16.5322 0 22.0003 0ZM27.0254 6.7335C27.0254 7.34302 26.8869 7.89127 26.606 8.37825C26.3257 8.86203 25.8005 9.37139 25.0315 9.90685L24.2991 10.4258C23.86 10.7353 23.5333 11.0449 23.3152 11.3609C23.1009 11.6736 22.9825 12.0221 22.9623 12.3987H20.381C20.4208 11.7578 20.6057 11.1834 20.939 10.6805C21.2689 10.1775 21.7576 9.70332 22.4044 9.26483C23.0943 8.79703 23.5792 8.38784 23.8633 8.03353C24.1469 7.67496 24.2893 7.28175 24.2893 6.84646C24.2893 6.29181 24.1044 5.85652 23.7346 5.53364C23.3616 5.21449 22.8369 5.05359 22.1503 5.05359C21.5002 5.05359 20.952 5.23687 20.5097 5.60823C20.0674 5.97906 19.81 6.46923 19.7309 7.07876L16.9746 6.9658C17.1491 5.68922 17.6874 4.69555 18.5922 3.98586C19.4926 3.27351 20.6679 2.91867 22.1137 2.91867C23.6424 2.91867 24.8406 3.25699 25.7154 3.93471C26.5902 4.61137 27.0254 5.54323 27.0254 6.7335ZM20.3047 16.424V13.8698H23.0976V16.424H20.3047Z" fill="white"/>
</svg>
