<svg width="90" height="84" viewBox="0 0 90 84" fill="none" xmlns="http://www.w3.org/2000/svg">
<path d="M89.287 44.99L59.253 11.31C59.25 11.307 59.246 11.304 59.243 11.301C59.207 11.261 59.162 11.231 59.124 11.193C59.017 11.087 58.907 10.982 58.784 10.894C58.726 10.853 58.661 10.824 58.601 10.788C58.486 10.719 58.371 10.649 58.246 10.597C58.23 10.59 58.217 10.578 58.2 10.572L34.103 0.91599C33.763 0.77999 33.408 0.713989 33.058 0.713989C32.172 0.713989 31.313 1.13399 30.772 1.88699L0.527 44.036C0.0229998 44.738 -0.13 45.633 0.112 46.463C0.354 47.293 0.964 47.965 1.766 48.287L10.013 51.591L9.96 70.811C9.957 71.963 10.657 73.001 11.727 73.429L35.828 83.084C35.838 83.088 35.849 83.089 35.859 83.093C35.976 83.139 36.096 83.169 36.216 83.197C36.264 83.209 36.31 83.227 36.358 83.236C36.529 83.268 36.702 83.286 36.874 83.286C37.004 83.286 37.135 83.276 37.266 83.258L37.275 83.257L37.297 83.254L50.648 81.379C52.034 81.185 53.065 80.001 53.069 78.602L53.078 75.498L62.623 79.321C62.633 79.325 62.644 79.326 62.653 79.33C62.769 79.375 62.889 79.405 63.008 79.434C63.057 79.446 63.103 79.464 63.153 79.474C63.324 79.505 63.496 79.523 63.669 79.523C63.799 79.523 63.93 79.513 64.06 79.495L64.068 79.494L64.093 79.49L77.442 77.616C78.828 77.422 79.859 76.238 79.863 74.839L79.932 50.724L87.581 49.649C88.608 49.504 89.473 48.806 89.83 47.833C90.185 46.856 89.978 45.765 89.287 44.99ZM77.048 74.83L66.48 76.314L65.074 76.512L63.667 76.709L63.731 53.943L50.319 55.83L50.275 71.344L50.271 72.858L50.266 74.371L50.254 78.594L39.686 80.078L38.279 80.276L36.872 80.473L36.945 53.924L26.908 55.331L29.934 51.114L57.152 13.181L58.111 14.257L59.07 15.333L87.186 46.862L77.123 48.276L77.048 74.83Z" fill="white"/>
</svg>
