<svg width="50" height="50" viewBox="0 0 50 50" fill="none" xmlns="http://www.w3.org/2000/svg">
<g clip-path="url(#clip0)">
<path fill-rule="evenodd" clip-rule="evenodd" d="M23.9583 47.9167L6.25 38.4688V30.2333L17.5 36.7375L23.9583 29.6417V47.9167ZM26.0417 47.9146V29.5688L32.6292 36.5333L43.75 30.3708V38.4688L26.0417 47.9146ZM4.50208 26.8208L0 24.2292L6.25 17.35L0 11.4688L18.1625 2.08334L24.8604 7.05209L31.7875 2.08334L50 11.5854L43.7604 17.3583L50 24.5313L45.3292 27.1167V27.1146L33.0312 33.9271L26.0562 26.55L41.5062 18.2958L25.0021 9.18751L8.49583 18.2958L23.9583 26.4979V26.5479L17.0896 34.0938L6.25 27.8271L5.91667 27.6354L4.50208 26.8167V26.8208V26.8208Z" fill="white"/>
</g>
<defs>
<clipPath id="clip0">
<rect width="50" height="50" fill="white"/>
</clipPath>
</defs>
</svg>
