<svg width="44" height="44" viewBox="0 0 44 44" fill="none" xmlns="http://www.w3.org/2000/svg">
<path d="M42.26 3.51999L25.26 0.51999C25.0443 0.48378 24.8234 0.494844 24.6124 0.552419C24.4014 0.609994 24.2055 0.712705 24.0381 0.853449C23.8708 0.994192 23.736 1.16961 23.643 1.36757C23.5501 1.56553 23.5013 1.78131 23.5 1.99999V3.67999L13.86 5.99999C13.533 6.08027 13.2421 6.26757 13.0338 6.5321C12.8254 6.79664 12.7114 7.12324 12.71 7.45999V11.56C12.71 11.9578 12.868 12.3393 13.1493 12.6207C13.4306 12.902 13.8122 13.06 14.21 13.06C14.6078 13.06 14.9894 12.902 15.2707 12.6207C15.552 12.3393 15.71 11.9578 15.71 11.56V8.61999L23.5 6.75999V37.38L15.71 35.52V33C15.71 32.6022 15.552 32.2206 15.2707 31.9393C14.9894 31.658 14.6078 31.5 14.21 31.5C13.8122 31.5 13.4306 31.658 13.1493 31.9393C12.868 32.2206 12.71 32.6022 12.71 33V36.7C12.7114 37.0367 12.8254 37.3633 13.0338 37.6279C13.2421 37.8924 13.533 38.0797 13.86 38.16L23.5 40.46V42C23.503 42.2181 23.5529 42.4331 23.6464 42.6302C23.7398 42.8273 23.8746 43.002 24.0416 43.1424C24.2086 43.2828 24.4038 43.3857 24.614 43.4439C24.8243 43.5021 25.0446 43.5145 25.26 43.48L42.26 40.48C42.6079 40.4188 42.923 40.2368 43.1498 39.966C43.3766 39.6953 43.5006 39.3532 43.5 39V4.99999C43.5006 4.64679 43.3766 4.30469 43.1498 4.03395C42.923 3.76322 42.6079 3.58121 42.26 3.51999V3.51999Z" fill="white"/>
<path d="M19.06 21.9999C19.06 21.6021 18.902 21.2206 18.6207 20.9393C18.3394 20.658 17.9578 20.4999 17.56 20.4999H9.48V15.9999C9.46831 15.7086 9.37194 15.4269 9.20268 15.1894C9.03342 14.952 8.79861 14.769 8.52698 14.6629C8.25535 14.5568 7.95868 14.5321 7.67327 14.592C7.38787 14.6519 7.1261 14.7936 6.92 14.9999L0.92 20.9999C0.646217 21.2849 0.493313 21.6648 0.493313 22.0599C0.493313 22.4551 0.646217 22.835 0.92 23.1199L6.92 29.1199C7.13332 29.3335 7.40611 29.4777 7.7027 29.5337C7.99929 29.5898 8.30589 29.555 8.58242 29.4341C8.85896 29.3131 9.09256 29.1115 9.25269 28.8556C9.41283 28.5998 9.49205 28.3015 9.48 27.9999V23.4999H17.56C17.9578 23.4999 18.3394 23.3419 18.6207 23.0606C18.902 22.7793 19.06 22.3978 19.06 21.9999V21.9999Z" fill="white"/>
</svg>
